<svg xmlns="http://www.w3.org/2000/svg" fill="none" viewBox="0 0 32 32" height="32" width="32" color="#E55733">
    <path fill="currentColor"
        d="M16.9393 0L15.9712 14.6932L15.0029 0H16.9393ZM16.9393 31.9417L15.9712 17.2485L15.0029 31.9417H16.9393ZM17.249 15.9707L31.9422 16.9388V15.0024L17.249 15.9707ZM0 16.9388L14.6932 15.9707L0 15.0024V16.9388ZM15.0674 15.0674L5.36238 3.99316L3.99316 5.36238L15.0674 15.0674ZM27.9483 26.5796L16.874 16.8745L26.5791 27.9488L27.9483 26.5796ZM16.874 15.0674L27.9483 5.36238L26.5791 3.99316L16.874 15.0674ZM5.36238 27.9488L15.0674 16.8745L3.99316 26.5796L5.36238 27.9488ZM16.3018 14.7365L21.0398 0.794625L19.1695 0.293457L16.3018 14.7365ZM12.7727 31.6482L15.6404 17.2051L10.9023 31.147L12.7727 31.6482ZM17.2051 16.3018L31.147 21.0398L31.6482 19.1695L17.2051 16.3018ZM0.293945 12.7723L14.737 15.64L0.795113 10.9019L0.293945 12.7723ZM15.3316 14.8645L8.82343 1.65576L7.14648 2.62395L15.3316 14.8645ZM24.7944 29.3177L16.6094 17.0771L23.1175 30.2859L24.7944 29.3177ZM17.0771 15.3321L30.2859 8.82392L29.3177 7.14697L17.0771 15.3321ZM2.62345 24.7949L14.864 16.6099L1.65527 23.118L2.62345 24.7949ZM16.6094 14.8645L24.7944 2.62395L23.1175 1.65576L16.6094 14.8645ZM8.82343 30.2859L15.3316 17.0771L7.14648 29.3177L8.82343 30.2859ZM17.0771 16.6099L29.3177 24.7949L30.2859 23.118L17.0771 16.6099ZM1.65527 8.82391L14.864 15.3321L2.62345 7.14697L1.65527 8.82391ZM15.6404 14.7366L12.7727 0.293457L10.9023 0.794624L15.6404 14.7366ZM21.0398 31.147L16.3018 17.2051L19.1695 31.6482L21.0398 31.147ZM17.2051 15.64L31.6482 12.7723L31.147 10.9019L17.2051 15.64ZM0.795113 21.0398L14.737 16.3018L0.293945 19.1695L0.795113 21.0398Z"
        clip-rule="evenodd" fill-rule="evenodd"></path>
</svg>